<mxfile host="app.diagrams.net" modified="2023-12-14T11:16:00.718Z" agent="Mozilla/5.0 (Windows NT 10.0; Win64; x64) AppleWebKit/537.36 (KHTML, like Gecko) Chrome/119.0.0.0 Safari/537.36" etag="hmLMKr0OpRvqz2mXE6Eb" version="22.1.8" type="device">
  <diagram name="Страница — 1" id="I2jku6pkDONSTNqUM9oI">
    <mxGraphModel dx="2049" dy="725" grid="1" gridSize="10" guides="1" tooltips="1" connect="1" arrows="1" fold="1" page="1" pageScale="1" pageWidth="827" pageHeight="1169" math="0" shadow="0">
      <root>
        <mxCell id="0" />
        <mxCell id="1" parent="0" />
        <mxCell id="qBpsZl4cBWIQG0rqRsyf-1" style="edgeStyle=orthogonalEdgeStyle;rounded=0;orthogonalLoop=1;jettySize=auto;html=1;endArrow=oval;endFill=1;entryX=0.499;entryY=-0.024;entryDx=0;entryDy=0;entryPerimeter=0;" edge="1" parent="1" source="qBpsZl4cBWIQG0rqRsyf-4" target="qBpsZl4cBWIQG0rqRsyf-16">
          <mxGeometry relative="1" as="geometry">
            <mxPoint x="400" y="220" as="targetPoint" />
          </mxGeometry>
        </mxCell>
        <mxCell id="qBpsZl4cBWIQG0rqRsyf-2" style="edgeStyle=orthogonalEdgeStyle;rounded=0;orthogonalLoop=1;jettySize=auto;html=1;entryX=0.5;entryY=-0.021;entryDx=0;entryDy=0;endArrow=oval;endFill=1;entryPerimeter=0;" edge="1" parent="1" source="qBpsZl4cBWIQG0rqRsyf-4" target="qBpsZl4cBWIQG0rqRsyf-22">
          <mxGeometry relative="1" as="geometry">
            <Array as="points">
              <mxPoint x="400" y="170" />
              <mxPoint x="680" y="170" />
            </Array>
          </mxGeometry>
        </mxCell>
        <mxCell id="qBpsZl4cBWIQG0rqRsyf-3" style="edgeStyle=orthogonalEdgeStyle;rounded=0;orthogonalLoop=1;jettySize=auto;html=1;exitX=0;exitY=1;exitDx=0;exitDy=0;endArrow=oval;endFill=1;" edge="1" parent="1" source="qBpsZl4cBWIQG0rqRsyf-4" target="qBpsZl4cBWIQG0rqRsyf-10">
          <mxGeometry relative="1" as="geometry" />
        </mxCell>
        <mxCell id="qBpsZl4cBWIQG0rqRsyf-4" value="Магазин" style="swimlane;whiteSpace=wrap;html=1;" vertex="1" parent="1">
          <mxGeometry x="300" y="60" width="200" height="80" as="geometry" />
        </mxCell>
        <mxCell id="qBpsZl4cBWIQG0rqRsyf-5" value="&amp;nbsp;Процессы и сотрудники" style="text;html=1;align=center;verticalAlign=middle;resizable=0;points=[];autosize=1;strokeColor=none;fillColor=none;" vertex="1" parent="qBpsZl4cBWIQG0rqRsyf-4">
          <mxGeometry x="10" y="50" width="160" height="30" as="geometry" />
        </mxCell>
        <mxCell id="qBpsZl4cBWIQG0rqRsyf-6" value="" style="endArrow=none;html=1;rounded=0;" edge="1" parent="qBpsZl4cBWIQG0rqRsyf-4">
          <mxGeometry width="50" height="50" relative="1" as="geometry">
            <mxPoint x="180" y="80" as="sourcePoint" />
            <mxPoint x="180" y="50" as="targetPoint" />
          </mxGeometry>
        </mxCell>
        <mxCell id="qBpsZl4cBWIQG0rqRsyf-7" value="" style="endArrow=none;html=1;rounded=0;" edge="1" parent="1">
          <mxGeometry width="50" height="50" relative="1" as="geometry">
            <mxPoint x="300" y="110" as="sourcePoint" />
            <mxPoint x="480" y="110" as="targetPoint" />
          </mxGeometry>
        </mxCell>
        <mxCell id="qBpsZl4cBWIQG0rqRsyf-8" style="edgeStyle=orthogonalEdgeStyle;rounded=0;orthogonalLoop=1;jettySize=auto;html=1;entryX=0.5;entryY=-0.023;entryDx=0;entryDy=0;endArrow=oval;endFill=1;entryPerimeter=0;" edge="1" parent="1" source="qBpsZl4cBWIQG0rqRsyf-10" target="qBpsZl4cBWIQG0rqRsyf-37">
          <mxGeometry relative="1" as="geometry" />
        </mxCell>
        <mxCell id="qBpsZl4cBWIQG0rqRsyf-9" style="edgeStyle=orthogonalEdgeStyle;rounded=0;orthogonalLoop=1;jettySize=auto;html=1;entryX=0.498;entryY=-0.017;entryDx=0;entryDy=0;endArrow=oval;endFill=1;entryPerimeter=0;" edge="1" parent="1" source="qBpsZl4cBWIQG0rqRsyf-10" target="qBpsZl4cBWIQG0rqRsyf-48">
          <mxGeometry relative="1" as="geometry" />
        </mxCell>
        <mxCell id="qBpsZl4cBWIQG0rqRsyf-10" value="Менеджер" style="swimlane;whiteSpace=wrap;html=1;" vertex="1" parent="1">
          <mxGeometry x="160" y="240" width="200" height="130" as="geometry" />
        </mxCell>
        <mxCell id="qBpsZl4cBWIQG0rqRsyf-11" value="Сотрудник" style="text;html=1;align=center;verticalAlign=middle;resizable=0;points=[];autosize=1;strokeColor=none;fillColor=none;" vertex="1" parent="qBpsZl4cBWIQG0rqRsyf-10">
          <mxGeometry x="15" y="100" width="80" height="30" as="geometry" />
        </mxCell>
        <mxCell id="qBpsZl4cBWIQG0rqRsyf-12" value="" style="endArrow=none;html=1;rounded=0;" edge="1" parent="qBpsZl4cBWIQG0rqRsyf-10">
          <mxGeometry width="50" height="50" relative="1" as="geometry">
            <mxPoint x="110" y="130" as="sourcePoint" />
            <mxPoint x="110" y="100" as="targetPoint" />
          </mxGeometry>
        </mxCell>
        <mxCell id="qBpsZl4cBWIQG0rqRsyf-13" value="" style="endArrow=none;html=1;rounded=0;" edge="1" parent="qBpsZl4cBWIQG0rqRsyf-10">
          <mxGeometry width="50" height="50" relative="1" as="geometry">
            <mxPoint y="100" as="sourcePoint" />
            <mxPoint x="110" y="100" as="targetPoint" />
          </mxGeometry>
        </mxCell>
        <mxCell id="qBpsZl4cBWIQG0rqRsyf-14" value="&amp;nbsp; &amp;nbsp; &amp;nbsp; &amp;nbsp; &amp;nbsp; &amp;nbsp; &amp;nbsp; &amp;nbsp; &amp;nbsp; &amp;nbsp; &amp;nbsp; &amp;nbsp; &amp;nbsp; &amp;nbsp;Название: Менеджер&lt;br&gt;ID: ...&lt;br&gt;&amp;nbsp; &amp;nbsp; ФИО: ...&lt;br&gt;&amp;nbsp; &amp;nbsp; &amp;nbsp; Оклад: ..." style="text;html=1;align=center;verticalAlign=middle;resizable=0;points=[];autosize=1;strokeColor=none;fillColor=none;" vertex="1" parent="qBpsZl4cBWIQG0rqRsyf-10">
          <mxGeometry x="-90" y="27" width="230" height="70" as="geometry" />
        </mxCell>
        <mxCell id="qBpsZl4cBWIQG0rqRsyf-15" style="edgeStyle=orthogonalEdgeStyle;rounded=0;orthogonalLoop=1;jettySize=auto;html=1;entryX=0.5;entryY=-0.024;entryDx=0;entryDy=0;endArrow=oval;endFill=1;entryPerimeter=0;" edge="1" parent="1" source="qBpsZl4cBWIQG0rqRsyf-16" target="qBpsZl4cBWIQG0rqRsyf-27">
          <mxGeometry relative="1" as="geometry" />
        </mxCell>
        <mxCell id="qBpsZl4cBWIQG0rqRsyf-16" value="Бухгалтер" style="swimlane;whiteSpace=wrap;html=1;" vertex="1" parent="1">
          <mxGeometry x="-300" y="240" width="200" height="130" as="geometry" />
        </mxCell>
        <mxCell id="qBpsZl4cBWIQG0rqRsyf-17" value="Сотрудник" style="text;html=1;align=center;verticalAlign=middle;resizable=0;points=[];autosize=1;strokeColor=none;fillColor=none;" vertex="1" parent="qBpsZl4cBWIQG0rqRsyf-16">
          <mxGeometry x="15" y="100" width="80" height="30" as="geometry" />
        </mxCell>
        <mxCell id="qBpsZl4cBWIQG0rqRsyf-18" value="" style="endArrow=none;html=1;rounded=0;" edge="1" parent="qBpsZl4cBWIQG0rqRsyf-16">
          <mxGeometry width="50" height="50" relative="1" as="geometry">
            <mxPoint x="110" y="130" as="sourcePoint" />
            <mxPoint x="110" y="100" as="targetPoint" />
          </mxGeometry>
        </mxCell>
        <mxCell id="qBpsZl4cBWIQG0rqRsyf-19" value="" style="endArrow=none;html=1;rounded=0;" edge="1" parent="qBpsZl4cBWIQG0rqRsyf-16">
          <mxGeometry width="50" height="50" relative="1" as="geometry">
            <mxPoint y="100" as="sourcePoint" />
            <mxPoint x="110" y="100" as="targetPoint" />
          </mxGeometry>
        </mxCell>
        <mxCell id="qBpsZl4cBWIQG0rqRsyf-20" value="&amp;nbsp; &amp;nbsp; &amp;nbsp; &amp;nbsp; &amp;nbsp; &amp;nbsp; &amp;nbsp; &amp;nbsp; &amp;nbsp; &amp;nbsp; &amp;nbsp; &amp;nbsp; &amp;nbsp; Название: Бухгалтер&lt;br&gt;ID: ...&lt;br&gt;&amp;nbsp; &amp;nbsp; ФИО: ...&lt;br&gt;&amp;nbsp; &amp;nbsp; &amp;nbsp; Оклад: ..." style="text;html=1;align=center;verticalAlign=middle;resizable=0;points=[];autosize=1;strokeColor=none;fillColor=none;" vertex="1" parent="qBpsZl4cBWIQG0rqRsyf-16">
          <mxGeometry x="-90" y="27" width="230" height="70" as="geometry" />
        </mxCell>
        <mxCell id="qBpsZl4cBWIQG0rqRsyf-21" style="edgeStyle=orthogonalEdgeStyle;rounded=0;orthogonalLoop=1;jettySize=auto;html=1;entryX=0.499;entryY=-0.019;entryDx=0;entryDy=0;endArrow=oval;endFill=1;entryPerimeter=0;" edge="1" parent="1" source="qBpsZl4cBWIQG0rqRsyf-22" target="qBpsZl4cBWIQG0rqRsyf-32">
          <mxGeometry relative="1" as="geometry" />
        </mxCell>
        <mxCell id="qBpsZl4cBWIQG0rqRsyf-22" value="Кладовщик" style="swimlane;whiteSpace=wrap;html=1;" vertex="1" parent="1">
          <mxGeometry x="580" y="220" width="200" height="130" as="geometry" />
        </mxCell>
        <mxCell id="qBpsZl4cBWIQG0rqRsyf-23" value="Сотрудник" style="text;html=1;align=center;verticalAlign=middle;resizable=0;points=[];autosize=1;strokeColor=none;fillColor=none;" vertex="1" parent="qBpsZl4cBWIQG0rqRsyf-22">
          <mxGeometry x="15" y="100" width="80" height="30" as="geometry" />
        </mxCell>
        <mxCell id="qBpsZl4cBWIQG0rqRsyf-24" value="" style="endArrow=none;html=1;rounded=0;" edge="1" parent="qBpsZl4cBWIQG0rqRsyf-22">
          <mxGeometry width="50" height="50" relative="1" as="geometry">
            <mxPoint x="110" y="130" as="sourcePoint" />
            <mxPoint x="110" y="100" as="targetPoint" />
          </mxGeometry>
        </mxCell>
        <mxCell id="qBpsZl4cBWIQG0rqRsyf-25" value="" style="endArrow=none;html=1;rounded=0;" edge="1" parent="qBpsZl4cBWIQG0rqRsyf-22">
          <mxGeometry width="50" height="50" relative="1" as="geometry">
            <mxPoint y="100" as="sourcePoint" />
            <mxPoint x="110" y="100" as="targetPoint" />
          </mxGeometry>
        </mxCell>
        <mxCell id="qBpsZl4cBWIQG0rqRsyf-26" value="&amp;nbsp; &amp;nbsp; &amp;nbsp; &amp;nbsp; &amp;nbsp; &amp;nbsp; &amp;nbsp; &amp;nbsp; &amp;nbsp; &amp;nbsp; &amp;nbsp; &amp;nbsp; &amp;nbsp; &amp;nbsp; Название: Кладовщик&lt;br&gt;ID: ...&lt;br&gt;&amp;nbsp; &amp;nbsp; ФИО: ...&lt;br&gt;&amp;nbsp; &amp;nbsp; &amp;nbsp; Оклад: ..." style="text;html=1;align=center;verticalAlign=middle;resizable=0;points=[];autosize=1;strokeColor=none;fillColor=none;" vertex="1" parent="qBpsZl4cBWIQG0rqRsyf-22">
          <mxGeometry x="-95" y="27" width="240" height="70" as="geometry" />
        </mxCell>
        <mxCell id="qBpsZl4cBWIQG0rqRsyf-27" value="Оформление счета" style="swimlane;whiteSpace=wrap;html=1;" vertex="1" parent="1">
          <mxGeometry x="-300" y="430" width="230" height="140" as="geometry" />
        </mxCell>
        <mxCell id="qBpsZl4cBWIQG0rqRsyf-28" value="&amp;nbsp;Процессы бухгалтера" style="text;html=1;align=center;verticalAlign=middle;resizable=0;points=[];autosize=1;strokeColor=none;fillColor=none;" vertex="1" parent="qBpsZl4cBWIQG0rqRsyf-27">
          <mxGeometry x="10" y="110" width="150" height="30" as="geometry" />
        </mxCell>
        <mxCell id="qBpsZl4cBWIQG0rqRsyf-29" value="" style="endArrow=none;html=1;rounded=0;" edge="1" parent="qBpsZl4cBWIQG0rqRsyf-27">
          <mxGeometry width="50" height="50" relative="1" as="geometry">
            <mxPoint x="170" y="140" as="sourcePoint" />
            <mxPoint x="170" y="110" as="targetPoint" />
          </mxGeometry>
        </mxCell>
        <mxCell id="qBpsZl4cBWIQG0rqRsyf-30" value="" style="endArrow=none;html=1;rounded=0;" edge="1" parent="qBpsZl4cBWIQG0rqRsyf-27">
          <mxGeometry width="50" height="50" relative="1" as="geometry">
            <mxPoint y="110" as="sourcePoint" />
            <mxPoint x="170" y="110" as="targetPoint" />
          </mxGeometry>
        </mxCell>
        <mxCell id="qBpsZl4cBWIQG0rqRsyf-31" value="&amp;nbsp; &amp;nbsp; &amp;nbsp; &amp;nbsp; &amp;nbsp; &amp;nbsp; &amp;nbsp; &amp;nbsp; &amp;nbsp; &amp;nbsp; &amp;nbsp; &amp;nbsp; &amp;nbsp; &amp;nbsp; &amp;nbsp; &amp;nbsp; &amp;nbsp; &amp;nbsp; &amp;nbsp; &amp;nbsp;Название: Оформление счета&amp;nbsp; &amp;nbsp;&lt;br&gt;&amp;nbsp;Номер: ..&lt;br&gt;Дата : ...&lt;br&gt;&amp;nbsp; &amp;nbsp; &amp;nbsp; &amp;nbsp; &amp;nbsp; &amp;nbsp; &amp;nbsp; &amp;nbsp;Проверка оплаты&lt;br&gt;&amp;nbsp; &amp;nbsp; &amp;nbsp; &amp;nbsp; &amp;nbsp; &amp;nbsp; &amp;nbsp; &amp;nbsp; &amp;nbsp; &amp;nbsp; &amp;nbsp;Создание накладной" style="text;html=1;align=center;verticalAlign=middle;resizable=0;points=[];autosize=1;strokeColor=none;fillColor=none;" vertex="1" parent="qBpsZl4cBWIQG0rqRsyf-27">
          <mxGeometry x="-130" y="20" width="330" height="90" as="geometry" />
        </mxCell>
        <mxCell id="qBpsZl4cBWIQG0rqRsyf-32" value="Выдача товара" style="swimlane;whiteSpace=wrap;html=1;" vertex="1" parent="1">
          <mxGeometry x="580" y="410" width="200" height="170" as="geometry" />
        </mxCell>
        <mxCell id="qBpsZl4cBWIQG0rqRsyf-33" value="&lt;br&gt;&amp;nbsp;Процессы кладовщика" style="text;html=1;align=center;verticalAlign=middle;resizable=0;points=[];autosize=1;strokeColor=none;fillColor=none;" vertex="1" parent="qBpsZl4cBWIQG0rqRsyf-32">
          <mxGeometry x="10" y="105" width="150" height="40" as="geometry" />
        </mxCell>
        <mxCell id="qBpsZl4cBWIQG0rqRsyf-34" value="" style="endArrow=none;html=1;rounded=0;" edge="1" parent="qBpsZl4cBWIQG0rqRsyf-32">
          <mxGeometry width="50" height="50" relative="1" as="geometry">
            <mxPoint x="170" y="140" as="sourcePoint" />
            <mxPoint x="170" y="110" as="targetPoint" />
          </mxGeometry>
        </mxCell>
        <mxCell id="qBpsZl4cBWIQG0rqRsyf-35" value="" style="endArrow=none;html=1;rounded=0;" edge="1" parent="qBpsZl4cBWIQG0rqRsyf-32">
          <mxGeometry width="50" height="50" relative="1" as="geometry">
            <mxPoint y="110" as="sourcePoint" />
            <mxPoint x="170" y="110" as="targetPoint" />
          </mxGeometry>
        </mxCell>
        <mxCell id="qBpsZl4cBWIQG0rqRsyf-36" value="&amp;nbsp; &amp;nbsp; &amp;nbsp; &amp;nbsp; &amp;nbsp; &amp;nbsp; &amp;nbsp; &amp;nbsp; &amp;nbsp; &amp;nbsp; &amp;nbsp; &amp;nbsp; &amp;nbsp; &amp;nbsp; &amp;nbsp; &amp;nbsp;Название: Выдача товара&amp;nbsp;&amp;nbsp;&lt;br&gt;&amp;nbsp; Номер: ...&lt;br&gt;Дата : ...&lt;br&gt;&amp;nbsp; &amp;nbsp; &amp;nbsp; &amp;nbsp; &amp;nbsp; &amp;nbsp; &amp;nbsp; &amp;nbsp; &amp;nbsp; &amp;nbsp; &amp;nbsp; &amp;nbsp; &amp;nbsp; &amp;nbsp; &amp;nbsp; &amp;nbsp; &amp;nbsp;Упаковка и отправка товара&lt;br&gt;&amp;nbsp; &amp;nbsp; &amp;nbsp; &amp;nbsp; &amp;nbsp; &amp;nbsp; &amp;nbsp; &amp;nbsp; &amp;nbsp; &amp;nbsp; Наличие накладной" style="text;html=1;align=center;verticalAlign=middle;resizable=0;points=[];autosize=1;strokeColor=none;fillColor=none;" vertex="1" parent="qBpsZl4cBWIQG0rqRsyf-32">
          <mxGeometry x="-110" y="20" width="290" height="90" as="geometry" />
        </mxCell>
        <mxCell id="qBpsZl4cBWIQG0rqRsyf-37" value="Оформление заказа" style="swimlane;whiteSpace=wrap;html=1;" vertex="1" parent="qBpsZl4cBWIQG0rqRsyf-32">
          <mxGeometry x="-300" y="30" width="220" height="140" as="geometry" />
        </mxCell>
        <mxCell id="qBpsZl4cBWIQG0rqRsyf-38" value="Процессы менеджера" style="text;html=1;align=center;verticalAlign=middle;resizable=0;points=[];autosize=1;strokeColor=none;fillColor=none;" vertex="1" parent="qBpsZl4cBWIQG0rqRsyf-37">
          <mxGeometry x="10" y="110" width="150" height="30" as="geometry" />
        </mxCell>
        <mxCell id="qBpsZl4cBWIQG0rqRsyf-39" value="" style="endArrow=none;html=1;rounded=0;" edge="1" parent="qBpsZl4cBWIQG0rqRsyf-37">
          <mxGeometry width="50" height="50" relative="1" as="geometry">
            <mxPoint x="170" y="140" as="sourcePoint" />
            <mxPoint x="170" y="110" as="targetPoint" />
          </mxGeometry>
        </mxCell>
        <mxCell id="qBpsZl4cBWIQG0rqRsyf-40" value="" style="endArrow=none;html=1;rounded=0;" edge="1" parent="qBpsZl4cBWIQG0rqRsyf-37">
          <mxGeometry width="50" height="50" relative="1" as="geometry">
            <mxPoint y="110" as="sourcePoint" />
            <mxPoint x="170" y="110" as="targetPoint" />
          </mxGeometry>
        </mxCell>
        <mxCell id="qBpsZl4cBWIQG0rqRsyf-41" value="&amp;nbsp; &amp;nbsp; &amp;nbsp; &amp;nbsp; &amp;nbsp; &amp;nbsp; &amp;nbsp; &amp;nbsp; &amp;nbsp; &amp;nbsp; &amp;nbsp; &amp;nbsp; &amp;nbsp; &amp;nbsp; &amp;nbsp; &amp;nbsp; &amp;nbsp; &amp;nbsp; &amp;nbsp; &amp;nbsp; &amp;nbsp; Название: Оформление заказа&amp;nbsp; &amp;nbsp;&amp;nbsp;&lt;br&gt;&amp;nbsp; Номер: ...&lt;br&gt;Дата : ...&lt;br&gt;&amp;nbsp; &amp;nbsp; &amp;nbsp; &amp;nbsp; &amp;nbsp; &amp;nbsp; &amp;nbsp; &amp;nbsp; &amp;nbsp; &amp;nbsp; &amp;nbsp; &amp;nbsp; &amp;nbsp; &amp;nbsp; &amp;nbsp; &amp;nbsp; &amp;nbsp; &amp;nbsp; &amp;nbsp; &amp;nbsp; &amp;nbsp; &amp;nbsp; &amp;nbsp; &amp;nbsp;Проверка наличия товара на складе" style="text;html=1;align=center;verticalAlign=middle;resizable=0;points=[];autosize=1;strokeColor=none;fillColor=none;" vertex="1" parent="qBpsZl4cBWIQG0rqRsyf-37">
          <mxGeometry x="-160" y="30" width="380" height="70" as="geometry" />
        </mxCell>
        <mxCell id="qBpsZl4cBWIQG0rqRsyf-42" value="Оплата" style="swimlane;whiteSpace=wrap;html=1;" vertex="1" parent="1">
          <mxGeometry x="-150" y="660" width="235" height="140" as="geometry" />
        </mxCell>
        <mxCell id="qBpsZl4cBWIQG0rqRsyf-43" value="&amp;nbsp;Процессы&amp;nbsp;" style="text;html=1;align=center;verticalAlign=middle;resizable=0;points=[];autosize=1;strokeColor=none;fillColor=none;" vertex="1" parent="qBpsZl4cBWIQG0rqRsyf-42">
          <mxGeometry x="40" y="110" width="90" height="30" as="geometry" />
        </mxCell>
        <mxCell id="qBpsZl4cBWIQG0rqRsyf-44" value="" style="endArrow=none;html=1;rounded=0;" edge="1" parent="qBpsZl4cBWIQG0rqRsyf-42">
          <mxGeometry width="50" height="50" relative="1" as="geometry">
            <mxPoint x="170" y="140" as="sourcePoint" />
            <mxPoint x="170" y="110" as="targetPoint" />
          </mxGeometry>
        </mxCell>
        <mxCell id="qBpsZl4cBWIQG0rqRsyf-45" value="" style="endArrow=none;html=1;rounded=0;" edge="1" parent="qBpsZl4cBWIQG0rqRsyf-42">
          <mxGeometry width="50" height="50" relative="1" as="geometry">
            <mxPoint y="110" as="sourcePoint" />
            <mxPoint x="170" y="110" as="targetPoint" />
          </mxGeometry>
        </mxCell>
        <mxCell id="qBpsZl4cBWIQG0rqRsyf-46" value="&amp;nbsp; &amp;nbsp; &amp;nbsp; &amp;nbsp; &amp;nbsp; &amp;nbsp; &amp;nbsp; &amp;nbsp; &amp;nbsp; &amp;nbsp;Название: Оплата&amp;nbsp; &amp;nbsp;&lt;br&gt;&amp;nbsp;Номер: ..&lt;br&gt;Дата : ...&lt;br&gt;&amp;nbsp; &amp;nbsp; &amp;nbsp; &amp;nbsp;Выдача чека" style="text;html=1;align=center;verticalAlign=middle;resizable=0;points=[];autosize=1;strokeColor=none;fillColor=none;" vertex="1" parent="qBpsZl4cBWIQG0rqRsyf-42">
          <mxGeometry x="-65" y="30" width="200" height="70" as="geometry" />
        </mxCell>
        <mxCell id="qBpsZl4cBWIQG0rqRsyf-47" style="edgeStyle=orthogonalEdgeStyle;rounded=0;orthogonalLoop=1;jettySize=auto;html=1;exitX=0;exitY=1;exitDx=0;exitDy=0;entryX=0.5;entryY=0;entryDx=0;entryDy=0;endArrow=oval;endFill=1;" edge="1" parent="1" source="qBpsZl4cBWIQG0rqRsyf-48" target="qBpsZl4cBWIQG0rqRsyf-42">
          <mxGeometry relative="1" as="geometry" />
        </mxCell>
        <mxCell id="qBpsZl4cBWIQG0rqRsyf-48" value="Проверка транзакции" style="swimlane;whiteSpace=wrap;html=1;" vertex="1" parent="1">
          <mxGeometry y="430" width="220" height="140" as="geometry" />
        </mxCell>
        <mxCell id="qBpsZl4cBWIQG0rqRsyf-49" value="&amp;nbsp;Процессы менеджера" style="text;html=1;align=center;verticalAlign=middle;resizable=0;points=[];autosize=1;strokeColor=none;fillColor=none;" vertex="1" parent="qBpsZl4cBWIQG0rqRsyf-48">
          <mxGeometry x="10" y="110" width="150" height="30" as="geometry" />
        </mxCell>
        <mxCell id="qBpsZl4cBWIQG0rqRsyf-50" value="" style="endArrow=none;html=1;rounded=0;" edge="1" parent="qBpsZl4cBWIQG0rqRsyf-48">
          <mxGeometry width="50" height="50" relative="1" as="geometry">
            <mxPoint x="170" y="140" as="sourcePoint" />
            <mxPoint x="170" y="110" as="targetPoint" />
          </mxGeometry>
        </mxCell>
        <mxCell id="qBpsZl4cBWIQG0rqRsyf-51" value="" style="endArrow=none;html=1;rounded=0;" edge="1" parent="qBpsZl4cBWIQG0rqRsyf-48">
          <mxGeometry width="50" height="50" relative="1" as="geometry">
            <mxPoint y="110" as="sourcePoint" />
            <mxPoint x="170" y="110" as="targetPoint" />
          </mxGeometry>
        </mxCell>
        <mxCell id="qBpsZl4cBWIQG0rqRsyf-52" value="&amp;nbsp; &amp;nbsp; &amp;nbsp; &amp;nbsp; &amp;nbsp; &amp;nbsp; &amp;nbsp; &amp;nbsp; &amp;nbsp; &amp;nbsp; &amp;nbsp; &amp;nbsp; &amp;nbsp; &amp;nbsp; &amp;nbsp; &amp;nbsp; &amp;nbsp; &amp;nbsp; &amp;nbsp; &amp;nbsp; &amp;nbsp; &amp;nbsp; Название: Проверка транзакции&amp;nbsp; &amp;nbsp;&amp;nbsp;&lt;br&gt;&amp;nbsp; Номер: ...&lt;br&gt;Дата : ...&lt;br&gt;&amp;nbsp; &amp;nbsp; &amp;nbsp; &amp;nbsp; &amp;nbsp; &amp;nbsp; &amp;nbsp; &amp;nbsp; &amp;nbsp; &amp;nbsp; &amp;nbsp; &amp;nbsp; &amp;nbsp; &amp;nbsp; &amp;nbsp; &amp;nbsp; &amp;nbsp; &amp;nbsp; &amp;nbsp; &amp;nbsp; &amp;nbsp; &amp;nbsp; &amp;nbsp; &amp;nbsp;" style="text;html=1;align=center;verticalAlign=middle;resizable=0;points=[];autosize=1;strokeColor=none;fillColor=none;" vertex="1" parent="qBpsZl4cBWIQG0rqRsyf-48">
          <mxGeometry x="-150" y="30" width="360" height="70" as="geometry" />
        </mxCell>
        <mxCell id="qBpsZl4cBWIQG0rqRsyf-53" value="" style="edgeStyle=orthogonalEdgeStyle;rounded=0;orthogonalLoop=1;jettySize=auto;html=1;entryX=0.5;entryY=0;entryDx=0;entryDy=0;endArrow=oval;endFill=1;" edge="1" parent="1" source="qBpsZl4cBWIQG0rqRsyf-28" target="qBpsZl4cBWIQG0rqRsyf-42">
          <mxGeometry relative="1" as="geometry">
            <Array as="points">
              <mxPoint x="-322" y="555" />
              <mxPoint x="-322" y="620" />
            </Array>
          </mxGeometry>
        </mxCell>
      </root>
    </mxGraphModel>
  </diagram>
</mxfile>
